# xmcd
#
# Track frame offsets:
#	150
#	9983
#	21833
#	33443
#	45113
#	54578
#	66353
#	78211
#	87136
#	100246
#	110881
#
# Disc length: 1599 seconds
#
# Revision: 1
# Processed by: cddbd v1.5.2PL0 Copyright (c) Steve Scherf et al.
# Submitted via: audiograbber 1.83.01
#
DISCID=7e063d0b
DTITLE=Flatt and Scruggs - Breaking Out
DYEAR=1970
DGENRE=Country
TTITLE0=Foggy Mountain Rock
TTITLE1=That Old Book Of Mine
TTITLE2=Come Back Darling
TTITLE3=Iron Curtain
TTITLE4=The Great Historical Bum
TTITLE5=Polka On A Banjo
TTITLE6=Six White Horses
TTITLE7=Hansdome Molly
TTITLE8=Rambling Gambler
TTITLE9=Mama Don't Allow It
TTITLE10=Po - Rebel Soldier
EXTD=
EXTT0=
EXTT1=
EXTT2=
EXTT3=
EXTT4=
EXTT5=
EXTT6=
EXTT7=
EXTT8=
EXTT9=
EXTT10=
PLAYORDER=
